<?xml version="1.0" encoding="utf-8"?>
<!-- Generator: Adobe Illustrator 16.0.3, SVG Export Plug-In . SVG Version: 6.00 Build 0)  -->
<!DOCTYPE svg PUBLIC "-//W3C//DTD SVG 1.1//EN" "http://www.w3.org/Graphics/SVG/1.1/DTD/svg11.dtd">
<svg version="1.1" id="Capa_1" xmlns="http://www.w3.org/2000/svg" xmlns:xlink="http://www.w3.org/1999/xlink" x="0px" y="0px"
	 width="48px" height="48px" viewBox="0 0 48 48" enable-background="new 0 0 48 48" xml:space="preserve">
<g>
	<path fill-rule="evenodd" clip-rule="evenodd" fill="#1F3252" d="M78.622,46.283c-0.209,0.629-0.684,0.897-1.31,0.928
		c-0.437,0.022-0.874,0.005-1.312,0.004c-1.225-0.002-1.722-0.501-1.725-1.743c-0.004-1.612-0.002-3.222-0.002-4.834
		c0-1.71-0.01-3.419,0.01-5.131c0.004-0.366-0.105-0.554-0.443-0.72c-1.572-0.775-2.266-2.166-2.524-3.81
		c-0.12-0.762,0.431-1.487,1.152-1.654c0.714-0.165,1.458,0.282,1.726,1.038c0.686,1.924,0.686,1.924,2.729,1.924
		c1.93,0,3.859,0.015,5.787-0.008c0.418-0.006,0.533,0.108,0.53,0.527c-0.019,2.624-0.02,5.248,0,7.875
		c0.003,0.445-0.128,0.563-0.569,0.575c-1.379,0.038-2.662-0.322-3.917-0.831c-0.21,0.112-0.13,0.313-0.132,0.475
		C78.618,42.693,78.622,44.488,78.622,46.283z"/>
	<path fill-rule="evenodd" clip-rule="evenodd" fill="#1F3252" d="M93.078,32.285c-0.498,0-0.997,0.017-1.493-0.004
		c-0.297-0.013-0.391,0.088-0.457,0.383c-0.096,0.429,0.083,1.074-0.336,1.229c-0.307,0.111-0.793-0.261-1.194-0.428
		c-1.208-0.503-2.405-1.025-3.62-1.509c-0.34-0.138-0.416-0.278-0.35-0.652c0.399-2.251,0.762-4.508,1.134-6.763
		c0.093-0.561,0.272-1.057,0.904-1.19c0.599-0.127,0.993,0.193,1.274,0.673c0.355,0.604,0.834,0.9,1.562,0.779
		c0.329-0.053,0.675-0.002,1.014-0.008c0.938-0.02,1.777,0.213,2.375,0.992c0.336,0.436,0.749,0.58,1.293,0.536
		c0.594-0.044,1.193-0.02,1.789-0.005c0.521,0.012,0.924,0.228,1.103,0.749c0.596,1.738-0.342,4.032-1.956,4.821
		c-0.777,0.38-1.603,0.431-2.444,0.399C93.478,32.281,93.276,32.285,93.078,32.285z M92.2,27.777
		c0.441-0.01,0.764-0.332,0.722-0.754c-0.047-0.464-0.321-0.724-0.79-0.7c-0.445,0.022-0.689,0.304-0.686,0.737
		C91.452,27.529,91.712,27.787,92.2,27.777z"/>
	<path fill-rule="evenodd" clip-rule="evenodd" fill="#1F3252" d="M90.565,46.283c-0.224,0.649-0.718,0.911-1.367,0.93
		c-0.438,0.012-0.876,0.003-1.313,0.002c-1.141-0.002-1.662-0.523-1.666-1.682c-0.005-1.552-0.014-3.102,0.008-4.651
		c0.006-0.438-0.083-0.492-0.486-0.316c-1.021,0.449-1.029,0.427-1.029-0.686c0-2.108-0.002-4.217,0.002-6.323
		c0.001-0.231-0.109-0.578,0.375-0.369c1.815,0.789,3.641,1.56,5.46,2.336C90.555,39.108,90.561,42.696,90.565,46.283z"/>
	<path fill-rule="evenodd" clip-rule="evenodd" fill="#1F3383" d="M90.565,46.283c-0.005-3.587-0.011-7.175-0.017-10.76
		c0.267,0.107,0.14,0.34,0.143,0.513c0.008,3.188,0.005,6.374,0.003,9.563C90.694,45.832,90.73,46.078,90.565,46.283z"/>
	<path fill-rule="evenodd" clip-rule="evenodd" fill="#1F3383" d="M78.622,46.283c0-1.795-0.004-3.59,0-5.385
		c0.002-0.162-0.078-0.362,0.132-0.475c0,1.685,0.002,3.369-0.003,5.053C78.75,45.749,78.808,46.037,78.622,46.283z"/>
	<path fill-rule="evenodd" clip-rule="evenodd" fill="#FEFEFE" d="M92.2,27.777c-0.488,0.01-0.748-0.248-0.754-0.717
		c-0.004-0.434,0.24-0.715,0.686-0.737c0.469-0.023,0.743,0.236,0.79,0.7C92.964,27.445,92.642,27.768,92.2,27.777z"/>
</g>
<g>
	<path fill-rule="evenodd" clip-rule="evenodd" fill="#E98D2A" d="M43.349,18.794c-1.312,0-2.621-0.004-3.932,0.005
		c-0.181,0.001-0.256-0.067-0.301-0.224c-0.182-0.626,0.229-1.258,0.902-1.364c0.115-0.018,0.166-0.048,0.204-0.159
		c0.27-0.776,1.055-1.124,1.808-0.802c0.106,0.044,0.149,0.032,0.216-0.062c0.563-0.79,1.645-0.793,2.204-0.005
		c0.075,0.106,0.122,0.108,0.235,0.059c0.73-0.314,1.529,0.044,1.792,0.804c0.036,0.108,0.078,0.149,0.2,0.165
		c0.348,0.047,0.624,0.223,0.806,0.533c0.165,0.286,0.111,0.592,0.074,0.893c-0.018,0.143-0.127,0.159-0.256,0.159
		C45.985,18.793,44.666,18.794,43.349,18.794z"/>
	<path fill-rule="evenodd" clip-rule="evenodd" fill="#E98D2A" d="M43.348,19.339c1.245,0,2.493,0,3.738,0
		c0.364,0,0.498,0.138,0.502,0.495c0.01,1.12-0.522,1.903-1.491,2.417c-0.079,0.043-0.131,0.092-0.167,0.176
		c-0.195,0.434-0.527,0.647-1.01,0.644c-1.047-0.006-2.095-0.006-3.141,0c-0.481,0.003-0.813-0.211-1.007-0.646
		c-0.037-0.084-0.089-0.134-0.167-0.175c-0.933-0.48-1.427-1.253-1.524-2.289c-0.042-0.436,0.134-0.623,0.569-0.623
		C40.882,19.339,42.114,19.339,43.348,19.339z M43.359,20.149c-1.075,0-2.15,0.007-3.226-0.006c-0.227-0.003-0.223,0.07-0.167,0.241
		c0.172,0.54,0.521,0.923,1.024,1.167c0.23,0.11,0.405,0.264,0.491,0.506c0.058,0.168,0.176,0.228,0.343,0.228
		c1.018,0,2.035,0,3.054,0c0.156,0,0.278-0.059,0.334-0.213c0.092-0.257,0.276-0.417,0.519-0.535
		c0.504-0.245,0.844-0.635,1.011-1.178c0.052-0.169,0.029-0.218-0.158-0.216C45.51,20.154,44.435,20.149,43.359,20.149z"/>
	<path fill-rule="evenodd" clip-rule="evenodd" fill="#FFFFFF" d="M43.359,20.149c1.075,0,2.15,0.004,3.225-0.004
		c0.188-0.002,0.21,0.047,0.158,0.216c-0.167,0.542-0.507,0.933-1.011,1.178c-0.242,0.118-0.427,0.277-0.519,0.535
		c-0.056,0.154-0.178,0.213-0.334,0.213c-1.019,0-2.036,0-3.054,0c-0.167,0-0.285-0.06-0.343-0.228
		c-0.086-0.243-0.261-0.396-0.491-0.506c-0.503-0.244-0.853-0.627-1.024-1.167c-0.056-0.171-0.06-0.244,0.167-0.241
		C41.209,20.156,42.284,20.149,43.359,20.149z"/>
</g>
<g>
	<path fill-rule="evenodd" clip-rule="evenodd" fill="#E98D2A" d="M25.365,17.277c-2.269,1.42-3.757,3.354-4.616,5.812
		c-0.585,1.678-0.422,3.197,0.785,4.503c1.201,1.3,2.702,1.663,4.401,1.105c0.049-0.017,0.107-0.003,0.287-0.003
		c-0.559,1.45-1.119,2.847-1.637,4.257c-0.607,1.656-2.121,2.523-3.221,3.748c-0.181,0.202-0.477,0.11-0.722,0.11
		c-4.032,0.004-8.065,0.011-12.098-0.001c-2.563-0.007-3.775-1.235-3.776-3.786c-0.001-2.003-0.021-4.007,0.013-6.008
		c0.009-0.564-0.173-0.729-0.705-0.678c-0.414,0.039-0.833,0.014-1.251,0.007c-1.027-0.016-1.763-0.486-2.092-1.35
		c-0.353-0.923-0.068-1.689,0.624-2.331c2.367-2.191,4.74-4.377,7.11-6.565c2.022-1.867,4.045-3.735,6.068-5.602
		c1.242-1.147,2.155-1.156,3.413-0.008C20.393,12.718,22.83,14.956,25.365,17.277z M8.937,22.983
		c-0.275,1.522-0.265,3.044-0.009,4.567c0.189,0.622,0.604,0.864,1.253,0.85c1.279-0.028,2.56-0.025,3.837-0.003
		c0.814,0.015,1.185-0.391,1.194-1.156c0.016-1.279,0.024-2.559-0.003-3.838c-0.017-0.899-0.383-1.222-1.307-1.229
		c-1.223-0.008-2.448,0.018-3.671-0.009C9.593,22.15,9.168,22.394,8.937,22.983z"/>
	<path fill-rule="evenodd" clip-rule="evenodd" fill="#E98D2A" d="M28.638,22.755c-1.672,0.52-2.543,1.574-3.036,3.034
		c-0.367,1.092-1.08,1.584-2.094,1.557c-1.29-0.035-2.167-1.082-1.935-2.352c0.351-1.913,1.322-3.502,2.841-4.665
		c2.407-1.84,5.134-2.705,8.186-2.169c2.441,0.428,4.038,1.96,5.119,4.105c0.174,0.346,0.323,0.709,0.441,1.078
		c0.316,0.982,0.813,1.718,1.862,2.141c1.185,0.478,1.605,1.83,1.08,2.85c-0.527,1.019-1.814,1.397-2.951,0.852
		c-0.574-0.275-1.143-0.566-1.699-0.874c-0.812-0.448-1.01-0.751-1.991-2.945c-0.441,1.466-0.844,2.765-1.214,4.071
		c-0.068,0.234,0.189,0.385,0.336,0.544c0.884,0.962,1.766,1.926,2.663,2.873c0.472,0.497,0.78,1.063,0.943,1.731
		c0.454,1.861,0.941,3.716,1.397,5.577c0.328,1.342-0.315,2.532-1.502,2.829c-1.136,0.283-2.197-0.457-2.549-1.806
		c-0.356-1.37-0.741-2.734-1.02-4.12c-0.189-0.938-0.597-1.685-1.262-2.368c-1.181-1.212-2.279-2.508-3.439-3.742
		c-1.209-1.285-1.594-2.743-1.119-4.45C28.031,25.31,28.304,24.098,28.638,22.755z"/>
	<path fill-rule="evenodd" clip-rule="evenodd" fill="#E98D2A" d="M26.62,31.616c0.98,1.098,1.899,2.131,2.829,3.154
		c0.179,0.199,0.149,0.375,0.067,0.605c-0.506,1.418-1.062,2.778-2.248,3.824c-1.062,0.935-1.992,2.014-2.994,3.016
		c-1.025,1.025-2.382,1.097-3.249,0.192c-0.846-0.885-0.74-2.182,0.261-3.19c0.019-0.02,0.039-0.039,0.058-0.06
		c1.11-1.091,2.293-2.119,3.308-3.293C25.661,34.696,25.826,33.077,26.62,31.616z"/>
	<path fill-rule="evenodd" clip-rule="evenodd" fill="#E98D2A" d="M37.993,12.818c-0.007,1.885-1.186,3.08-3.021,3.06
		c-1.756-0.019-3.097-1.389-3.073-3.137c0.024-1.731,1.426-3.103,3.151-3.084C36.829,9.675,38,10.935,37.993,12.818z"/>
	<path fill-rule="evenodd" clip-rule="evenodd" fill="#FEFEFE" d="M8.937,22.983c0.231-0.59,0.657-0.833,1.295-0.818
		c1.223,0.027,2.448,0.001,3.671,0.009c0.924,0.007,1.29,0.33,1.307,1.229c0.027,1.279,0.019,2.559,0.003,3.838
		c-0.009,0.766-0.379,1.171-1.194,1.156c-1.278-0.022-2.559-0.025-3.837,0.003c-0.649,0.015-1.064-0.228-1.253-0.851
		C8.93,26.027,8.934,24.505,8.937,22.983z"/>
	<path fill-rule="evenodd" clip-rule="evenodd" fill="#1E3181" d="M8.937,22.983c-0.002,1.522-0.006,3.044-0.009,4.566
		C8.672,26.027,8.662,24.505,8.937,22.983z"/>
</g>
</svg>
