<?xml version="1.0" encoding="utf-8"?>
<!-- Generator: Adobe Illustrator 16.0.3, SVG Export Plug-In . SVG Version: 6.00 Build 0)  -->
<!DOCTYPE svg PUBLIC "-//W3C//DTD SVG 1.1//EN" "http://www.w3.org/Graphics/SVG/1.1/DTD/svg11.dtd">
<svg version="1.1" id="Capa_1" xmlns="http://www.w3.org/2000/svg" xmlns:xlink="http://www.w3.org/1999/xlink" x="0px" y="0px"
	 width="48px" height="48px" viewBox="0 0 48 48" enable-background="new 0 0 48 48" xml:space="preserve">
<g>
	<path fill-rule="evenodd" clip-rule="evenodd" fill="#1F3252" d="M13.307,42.963c-0.347,1.043-1.134,1.488-2.17,1.541
		c-0.724,0.035-1.45,0.008-2.176,0.006c-2.03-0.002-2.854-0.83-2.859-2.891c-0.005-2.672-0.001-5.342-0.001-8.014
		c0-2.834-0.018-5.67,0.015-8.506c0.007-0.608-0.176-0.919-0.735-1.194c-2.607-1.283-3.754-3.59-4.185-6.314
		c-0.2-1.262,0.714-2.466,1.911-2.742c1.183-0.273,2.417,0.468,2.862,1.721c1.134,3.19,1.134,3.19,4.523,3.19
		c3.199,0,6.396,0.021,9.594-0.016c0.691-0.008,0.883,0.181,0.878,0.874c-0.031,4.352-0.032,8.704,0,13.055
		c0.006,0.74-0.211,0.938-0.945,0.957c-2.285,0.061-4.41-0.539-6.493-1.379c-0.347,0.186-0.215,0.518-0.216,0.787
		C13.3,37.014,13.306,39.988,13.307,42.963z"/>
	<path fill-rule="evenodd" clip-rule="evenodd" fill="#1F3252" d="M37.271,19.761c-0.824,0-1.65,0.025-2.474-0.01
		c-0.494-0.021-0.649,0.147-0.759,0.638c-0.158,0.708,0.137,1.779-0.559,2.034c-0.506,0.185-1.313-0.431-1.979-0.708
		c-2.001-0.834-3.988-1.699-6.001-2.503c-0.563-0.226-0.689-0.462-0.579-1.08c0.661-3.73,1.264-7.472,1.879-11.211
		c0.152-0.931,0.452-1.752,1.499-1.975c0.991-0.21,1.647,0.324,2.112,1.115c0.592,1.003,1.385,1.494,2.589,1.295
		c0.546-0.09,1.119-0.006,1.681-0.017c1.557-0.029,2.946,0.357,3.938,1.647c0.556,0.723,1.241,0.961,2.142,0.89
		c0.984-0.077,1.979-0.035,2.969-0.011c0.862,0.021,1.531,0.379,1.826,1.243c0.986,2.881-0.567,6.685-3.245,7.993
		c-1.287,0.629-2.655,0.711-4.05,0.661C37.933,19.75,37.602,19.761,37.271,19.761z M35.815,12.287
		c0.732-0.016,1.268-0.551,1.197-1.252c-0.078-0.767-0.53-1.197-1.309-1.158c-0.738,0.037-1.144,0.505-1.137,1.222
		C34.575,11.873,35.009,12.301,35.815,12.287z"/>
	<path fill-rule="evenodd" clip-rule="evenodd" fill="#1F3252" d="M33.106,42.963c-0.371,1.08-1.189,1.514-2.268,1.543
		c-0.725,0.02-1.45,0.006-2.175,0.004c-1.89-0.004-2.754-0.869-2.761-2.789c-0.009-2.57-0.024-5.141,0.011-7.711
		c0.01-0.727-0.137-0.814-0.805-0.521c-1.692,0.742-1.707,0.707-1.707-1.141c0-3.494-0.003-6.986,0.003-10.479
		c0.002-0.384-0.182-0.961,0.622-0.612c3.011,1.306,6.034,2.583,9.053,3.871C33.089,31.072,33.098,37.018,33.106,42.963z"/>
	<path fill-rule="evenodd" clip-rule="evenodd" fill="#1F3252" d="M23.423,17.274c0.003,0.927-0.985,1.533-1.814,1.104
		c-0.172-0.089-0.332-0.213-0.477-0.344c-3.997-3.591-7.99-7.188-11.987-10.779C8.52,6.694,8.302,6.066,8.853,5.352
		c0.479-0.62,1.228-0.586,1.996,0.044c0.076,0.063,0.148,0.13,0.222,0.196c2.744,2.471,5.487,4.943,8.231,7.414
		c1.151,1.037,2.301,2.075,3.458,3.106C23.115,16.428,23.407,16.77,23.423,17.274z"/>
	<path fill-rule="evenodd" clip-rule="evenodd" fill="#1F3383" d="M33.106,42.963c-0.009-5.945-0.018-11.891-0.026-17.836
		c0.441,0.18,0.233,0.564,0.234,0.848c0.014,5.287,0.011,10.57,0.007,15.855C33.32,42.217,33.381,42.625,33.106,42.963z"/>
	<path fill-rule="evenodd" clip-rule="evenodd" fill="#1F3383" d="M13.307,42.963c-0.001-2.975-0.007-5.949,0.001-8.924
		c0.001-0.27-0.131-0.602,0.216-0.787c0,2.793,0.005,5.586-0.003,8.379C13.519,42.082,13.615,42.559,13.307,42.963z"/>
	<path fill-rule="evenodd" clip-rule="evenodd" fill="#FEFEFE" d="M35.815,12.287c-0.807,0.014-1.24-0.414-1.248-1.189
		c-0.007-0.717,0.398-1.185,1.137-1.222c0.778-0.039,1.23,0.391,1.309,1.158C37.083,11.736,36.548,12.271,35.815,12.287z"/>
</g>
</svg>
