<?xml version="1.0" encoding="utf-8"?>
<!-- Generator: Adobe Illustrator 16.0.3, SVG Export Plug-In . SVG Version: 6.00 Build 0)  -->
<!DOCTYPE svg PUBLIC "-//W3C//DTD SVG 1.1//EN" "http://www.w3.org/Graphics/SVG/1.1/DTD/svg11.dtd">
<svg version="1.1" id="Capa_1" xmlns="http://www.w3.org/2000/svg" xmlns:xlink="http://www.w3.org/1999/xlink" x="0px" y="0px"
	 width="48px" height="48px" viewBox="0 0 48 48" enable-background="new 0 0 48 48" xml:space="preserve">
<g>
	<path fill-rule="evenodd" clip-rule="evenodd" fill="#E98D2A" d="M-127.224-66.666c-1.312,0-2.621-0.004-3.932,0.005
		c-0.181,0.001-0.256-0.067-0.301-0.224c-0.182-0.626,0.229-1.258,0.902-1.364c0.115-0.018,0.166-0.048,0.204-0.159
		c0.27-0.776,1.055-1.124,1.808-0.802c0.106,0.044,0.149,0.032,0.216-0.062c0.563-0.79,1.645-0.793,2.204-0.005
		c0.075,0.106,0.122,0.108,0.235,0.059c0.73-0.314,1.529,0.044,1.792,0.804c0.036,0.108,0.078,0.149,0.2,0.165
		c0.348,0.047,0.624,0.223,0.806,0.533c0.165,0.286,0.111,0.592,0.074,0.893c-0.018,0.143-0.127,0.159-0.256,0.159
		C-124.587-66.667-125.907-66.666-127.224-66.666z"/>
	<path fill-rule="evenodd" clip-rule="evenodd" fill="#E98D2A" d="M-127.225-66.121c1.245,0,2.493,0,3.738,0
		c0.364,0,0.498,0.138,0.502,0.495c0.01,1.12-0.522,1.903-1.491,2.417c-0.079,0.043-0.131,0.092-0.167,0.176
		c-0.195,0.434-0.527,0.647-1.01,0.644c-1.047-0.006-2.095-0.006-3.141,0c-0.481,0.003-0.813-0.211-1.007-0.646
		c-0.037-0.084-0.089-0.134-0.167-0.175c-0.933-0.48-1.427-1.253-1.524-2.289c-0.042-0.436,0.134-0.623,0.569-0.623
		C-129.691-66.121-128.458-66.121-127.225-66.121z M-127.213-65.311c-1.075,0-2.15,0.007-3.226-0.006
		c-0.227-0.003-0.223,0.07-0.167,0.241c0.172,0.54,0.521,0.923,1.024,1.167c0.23,0.11,0.405,0.264,0.491,0.506
		c0.058,0.168,0.176,0.228,0.343,0.228c1.018,0,2.035,0,3.054,0c0.156,0,0.278-0.059,0.334-0.213
		c0.092-0.257,0.276-0.417,0.519-0.535c0.504-0.245,0.844-0.635,1.011-1.178c0.052-0.169,0.029-0.218-0.158-0.216
		C-125.063-65.307-126.138-65.311-127.213-65.311z"/>
	<path fill-rule="evenodd" clip-rule="evenodd" fill="#FFFFFF" d="M-127.213-65.311c1.075,0,2.15,0.004,3.225-0.004
		c0.188-0.002,0.21,0.047,0.158,0.216c-0.167,0.542-0.507,0.933-1.011,1.178c-0.242,0.118-0.427,0.277-0.519,0.535
		c-0.056,0.154-0.178,0.213-0.334,0.213c-1.019,0-2.036,0-3.054,0c-0.167,0-0.285-0.06-0.343-0.228
		c-0.086-0.243-0.261-0.396-0.491-0.506c-0.503-0.244-0.853-0.627-1.024-1.167c-0.056-0.171-0.06-0.244,0.167-0.241
		C-129.364-65.304-128.289-65.311-127.213-65.311z"/>
</g>
<g>
	<path fill-rule="evenodd" clip-rule="evenodd" fill="#E98D2A" d="M-145.208-68.184c-2.269,1.42-3.757,3.354-4.616,5.812
		c-0.585,1.678-0.422,3.197,0.785,4.503c1.201,1.3,2.702,1.663,4.401,1.105c0.049-0.017,0.107-0.003,0.287-0.003
		c-0.559,1.45-1.119,2.847-1.637,4.257c-0.607,1.656-2.121,2.523-3.221,3.748c-0.181,0.202-0.477,0.11-0.722,0.11
		c-4.032,0.004-8.065,0.011-12.098-0.001c-2.563-0.007-3.775-1.235-3.776-3.786c-0.001-2.003-0.021-4.007,0.013-6.008
		c0.009-0.564-0.173-0.729-0.705-0.678c-0.414,0.039-0.833,0.014-1.251,0.007c-1.027-0.016-1.763-0.486-2.092-1.35
		c-0.353-0.923-0.068-1.689,0.624-2.331c2.367-2.191,4.74-4.377,7.11-6.565c2.022-1.867,4.045-3.735,6.068-5.602
		c1.242-1.147,2.155-1.156,3.413-0.008C-150.18-72.743-147.743-70.505-145.208-68.184z M-161.636-62.477
		c-0.275,1.522-0.265,3.044-0.009,4.567c0.189,0.622,0.604,0.864,1.253,0.85c1.279-0.028,2.56-0.025,3.837-0.003
		c0.814,0.015,1.185-0.391,1.194-1.156c0.016-1.279,0.024-2.559-0.003-3.838c-0.017-0.899-0.383-1.222-1.307-1.229
		c-1.223-0.008-2.448,0.018-3.671-0.009C-160.979-63.311-161.405-63.067-161.636-62.477z"/>
	<path fill-rule="evenodd" clip-rule="evenodd" fill="#E98D2A" d="M-141.935-62.706c-1.672,0.52-2.543,1.574-3.036,3.034
		c-0.367,1.092-1.08,1.584-2.094,1.557c-1.29-0.035-2.167-1.082-1.935-2.352c0.351-1.913,1.322-3.502,2.841-4.665
		c2.407-1.84,5.134-2.705,8.186-2.169c2.441,0.428,4.038,1.96,5.119,4.105c0.174,0.346,0.323,0.709,0.441,1.078
		c0.316,0.982,0.813,1.718,1.862,2.141c1.185,0.478,1.605,1.83,1.08,2.85c-0.527,1.019-1.814,1.397-2.951,0.852
		c-0.574-0.275-1.143-0.566-1.699-0.874c-0.812-0.448-1.01-0.751-1.991-2.945c-0.441,1.466-0.844,2.765-1.214,4.071
		c-0.068,0.234,0.189,0.385,0.336,0.544c0.884,0.962,1.766,1.926,2.663,2.873c0.472,0.497,0.78,1.063,0.943,1.731
		c0.454,1.861,0.941,3.716,1.397,5.577c0.328,1.342-0.315,2.532-1.502,2.829c-1.136,0.283-2.197-0.457-2.549-1.806
		c-0.356-1.37-0.741-2.734-1.02-4.12c-0.189-0.938-0.597-1.685-1.262-2.368c-1.181-1.212-2.279-2.508-3.439-3.742
		c-1.209-1.285-1.594-2.743-1.119-4.45C-142.542-60.151-142.269-61.363-141.935-62.706z"/>
	<path fill-rule="evenodd" clip-rule="evenodd" fill="#E98D2A" d="M-143.953-53.844c0.98,1.098,1.899,2.131,2.829,3.154
		c0.179,0.199,0.149,0.375,0.067,0.605c-0.506,1.418-1.062,2.778-2.248,3.824c-1.062,0.935-1.992,2.014-2.994,3.016
		c-1.025,1.025-2.382,1.097-3.249,0.192c-0.846-0.885-0.74-2.182,0.261-3.19c0.019-0.02,0.039-0.039,0.058-0.06
		c1.11-1.091,2.293-2.119,3.308-3.293C-144.912-50.764-144.747-52.383-143.953-53.844z"/>
	<path fill-rule="evenodd" clip-rule="evenodd" fill="#E98D2A" d="M-132.58-72.643c-0.007,1.885-1.186,3.08-3.021,3.06
		c-1.756-0.019-3.097-1.389-3.073-3.137c0.024-1.731,1.426-3.103,3.151-3.084C-133.744-75.786-132.573-74.526-132.58-72.643z"/>
	<path fill-rule="evenodd" clip-rule="evenodd" fill="#FEFEFE" d="M-161.636-62.477c0.231-0.59,0.657-0.833,1.295-0.818
		c1.223,0.027,2.448,0.001,3.671,0.009c0.924,0.007,1.29,0.33,1.307,1.229c0.027,1.279,0.019,2.559,0.003,3.838
		c-0.009,0.766-0.379,1.171-1.194,1.156c-1.278-0.022-2.559-0.025-3.837,0.003c-0.649,0.015-1.064-0.228-1.253-0.851
		C-161.643-59.433-161.639-60.955-161.636-62.477z"/>
	<path fill-rule="evenodd" clip-rule="evenodd" fill="#1E3181" d="M-161.636-62.477c-0.002,1.522-0.006,3.044-0.009,4.566
		C-161.901-59.433-161.911-60.955-161.636-62.477z"/>
</g>
<g>
	<path fill-rule="evenodd" clip-rule="evenodd" fill="#E98D2A" d="M-42.209-54.609c-2.27,1.42-3.758,3.354-4.615,5.812
		c-0.586,1.678-0.422,3.197,0.784,4.503c1.201,1.3,2.702,1.663,4.401,1.105c0.049-0.017,0.107-0.003,0.287-0.003
		c-0.559,1.45-1.119,2.847-1.637,4.257c-0.607,1.656-2.121,2.523-3.222,3.748c-0.181,0.202-0.477,0.11-0.722,0.11
		c-4.032,0.004-8.065,0.011-12.098-0.001c-2.563-0.007-3.775-1.235-3.776-3.786c-0.001-2.003-0.021-4.007,0.013-6.008
		c0.009-0.564-0.173-0.729-0.705-0.678c-0.414,0.039-0.833,0.014-1.251,0.007c-1.027-0.016-1.763-0.486-2.092-1.35
		c-0.353-0.923-0.068-1.689,0.624-2.331c2.367-2.191,4.74-4.377,7.11-6.565c2.022-1.867,4.045-3.735,6.067-5.602
		c1.242-1.147,2.155-1.156,3.413-0.008C-47.182-59.168-44.744-56.93-42.209-54.609z M-58.638-48.902
		c-0.275,1.522-0.265,3.044-0.009,4.567c0.189,0.622,0.604,0.864,1.253,0.85c1.279-0.028,2.559-0.025,3.837-0.003
		c0.814,0.015,1.185-0.391,1.194-1.156c0.016-1.279,0.023-2.559-0.004-3.838c-0.017-0.899-0.383-1.222-1.307-1.229
		c-1.223-0.008-2.447,0.018-3.67-0.009C-57.981-49.736-58.406-49.492-58.638-48.902z"/>
	<path fill-rule="evenodd" clip-rule="evenodd" fill="#E98D2A" d="M-38.937-49.131c-1.672,0.52-2.543,1.574-3.036,3.034
		c-0.367,1.092-1.08,1.584-2.094,1.557c-1.29-0.035-2.168-1.082-1.936-2.352c0.352-1.913,1.322-3.502,2.842-4.665
		c2.406-1.84,5.134-2.705,8.186-2.169c2.441,0.428,4.038,1.96,5.119,4.105c0.174,0.346,0.323,0.709,0.441,1.078
		c0.316,0.982,0.813,1.718,1.862,2.141c1.185,0.478,1.605,1.83,1.08,2.85c-0.527,1.019-1.814,1.397-2.951,0.852
		c-0.574-0.275-1.143-0.566-1.699-0.874c-0.812-0.448-1.01-0.751-1.991-2.945c-0.441,1.466-0.844,2.765-1.214,4.071
		c-0.068,0.234,0.189,0.385,0.336,0.544c0.884,0.962,1.766,1.926,2.663,2.873c0.472,0.497,0.78,1.063,0.943,1.731
		c0.454,1.861,0.941,3.716,1.397,5.577c0.328,1.342-0.315,2.532-1.502,2.829c-1.136,0.283-2.197-0.457-2.549-1.806
		c-0.356-1.37-0.741-2.734-1.02-4.12c-0.189-0.938-0.597-1.685-1.262-2.368c-1.181-1.212-2.279-2.508-3.439-3.742
		c-1.209-1.285-1.594-2.743-1.119-4.45C-39.543-46.576-39.271-47.788-38.937-49.131z"/>
	<path fill-rule="evenodd" clip-rule="evenodd" fill="#E98D2A" d="M-40.954-40.27c0.98,1.098,1.899,2.131,2.829,3.154
		c0.179,0.199,0.149,0.375,0.067,0.605c-0.506,1.418-1.062,2.778-2.248,3.824c-1.062,0.935-1.992,2.014-2.994,3.016
		c-1.024,1.025-2.382,1.097-3.249,0.192c-0.846-0.885-0.74-2.182,0.262-3.19c0.019-0.02,0.039-0.039,0.058-0.06
		c1.11-1.091,2.293-2.119,3.308-3.293C-41.913-37.189-41.748-38.809-40.954-40.27z"/>
	<path fill-rule="evenodd" clip-rule="evenodd" fill="#E98D2A" d="M-29.581-59.068c-0.007,1.885-1.186,3.08-3.021,3.06
		c-1.756-0.019-3.097-1.389-3.073-3.137c0.024-1.731,1.426-3.103,3.151-3.084C-30.745-62.211-29.574-60.951-29.581-59.068z"/>
	<path fill-rule="evenodd" clip-rule="evenodd" fill="#FEFEFE" d="M-58.638-48.902c0.231-0.59,0.657-0.833,1.295-0.818
		c1.223,0.027,2.448,0.001,3.67,0.009c0.924,0.007,1.29,0.33,1.307,1.229c0.027,1.279,0.02,2.559,0.004,3.838
		c-0.01,0.766-0.38,1.171-1.194,1.156c-1.278-0.022-2.559-0.025-3.837,0.003c-0.649,0.015-1.064-0.228-1.253-0.851
		C-58.644-45.858-58.64-47.38-58.638-48.902z"/>
	<path fill-rule="evenodd" clip-rule="evenodd" fill="#1E3181" d="M-58.638-48.902c-0.002,1.522-0.006,3.044-0.009,4.566
		C-58.902-45.858-58.913-47.38-58.638-48.902z"/>
</g>
<path fill-rule="evenodd" clip-rule="evenodd" fill="#E98D2A" d="M555.11-239.214c-13.918,8.708-23.045,20.565-28.303,35.641
	c-3.593,10.289-2.587,19.607,4.81,27.615c7.365,7.97,16.569,10.198,26.99,6.777c0.3-0.101,0.659-0.017,1.761-0.017
	c-3.426,8.893-6.863,17.455-10.037,26.104c-3.725,10.156-13.008,15.475-19.757,22.984c-1.107,1.239-2.922,0.676-4.426,0.676
	c-24.727,0.025-49.46,0.067-74.186-0.006c-15.715-0.042-23.152-7.575-23.158-23.218c-0.006-12.282-0.132-24.571,0.077-36.841
	c0.06-3.462-1.06-4.467-4.317-4.157c-2.532,0.24-5.108,0.084-7.671,0.043c-6.301-0.097-10.81-2.983-12.828-8.282
	c-2.168-5.654-0.419-10.36,3.82-14.29c14.518-13.438,29.069-26.841,43.604-40.258c12.401-11.451,24.804-22.904,37.207-34.354
	c7.616-7.034,13.216-7.088,20.929-0.048C524.616-267.172,539.564-253.449,555.11-239.214z M454.364-204.22
	c-1.684,9.331-1.623,18.667-0.054,28.008c1.161,3.815,3.706,5.3,7.689,5.212c7.839-0.174,15.689-0.156,23.529-0.02
	c4.994,0.091,7.263-2.394,7.324-7.09c0.095-7.845,0.143-15.69-0.025-23.535c-0.102-5.515-2.347-7.495-8.012-7.537
	c-7.499-0.048-15.008,0.108-22.506-0.057C458.394-209.331,455.783-207.836,454.364-204.22z"/>
<g>
	<g>
		<path fill-rule="evenodd" clip-rule="evenodd" fill="#E98D2A" d="M591.519-184.198c-0.32,0.962-1.046,1.373-2.004,1.419
			c-0.668,0.034-1.337,0.007-2.006,0.006c-1.874-0.003-2.635-0.767-2.639-2.667c-0.006-2.467-0.004-4.929-0.004-7.396
			c0-2.616-0.015-5.231,0.016-7.851c0.006-0.56-0.162-0.847-0.679-1.101c-2.405-1.187-3.466-3.314-3.862-5.829
			c-0.184-1.166,0.658-2.275,1.764-2.531c1.092-0.252,2.23,0.432,2.64,1.588c1.049,2.943,1.049,2.943,4.175,2.943
			c2.952,0,5.904,0.022,8.854-0.012c0.641-0.009,0.816,0.166,0.813,0.807c-0.029,4.015-0.03,8.03,0,12.049
			c0.004,0.682-0.196,0.862-0.871,0.88c-2.11,0.058-4.074-0.493-5.994-1.271c-0.32,0.171-0.198,0.478-0.201,0.726
			C591.513-189.691,591.519-186.945,591.519-184.198z"/>
		<path fill-rule="evenodd" clip-rule="evenodd" fill="#E98D2A" d="M613.637-205.616c-0.763,0-1.526,0.025-2.284-0.006
			c-0.455-0.02-0.598,0.135-0.7,0.586c-0.146,0.656,0.128,1.644-0.514,1.879c-0.47,0.17-1.214-0.399-1.827-0.654
			c-1.849-0.77-3.68-1.569-5.539-2.309c-0.52-0.21-0.637-0.426-0.535-0.998c0.611-3.444,1.166-6.897,1.734-10.347
			c0.143-0.857,0.418-1.616,1.385-1.821c0.915-0.194,1.52,0.296,1.949,1.03c0.544,0.923,1.275,1.377,2.389,1.192
			c0.504-0.081,1.033-0.003,1.551-0.012c1.437-0.03,2.72,0.326,3.635,1.518c0.514,0.667,1.146,0.888,1.978,0.82
			c0.909-0.067,1.826-0.03,2.737-0.007c0.798,0.018,1.414,0.348,1.688,1.146c0.911,2.66-0.523,6.169-2.993,7.376
			c-1.189,0.581-2.452,0.659-3.74,0.611C614.247-205.622,613.939-205.616,613.637-205.616z M612.293-212.513
			c0.675-0.015,1.169-0.508,1.104-1.153c-0.072-0.709-0.492-1.107-1.209-1.071c-0.682,0.034-1.055,0.465-1.049,1.128
			C611.148-212.892,611.546-212.498,612.293-212.513z"/>
		<path fill-rule="evenodd" clip-rule="evenodd" fill="#E98D2A" d="M609.792-184.198c-0.342,0.994-1.098,1.394-2.092,1.422
			c-0.671,0.018-1.34,0.004-2.008,0.003c-1.746-0.003-2.543-0.801-2.549-2.573c-0.008-2.375-0.021-4.746,0.012-7.117
			c0.009-0.671-0.127-0.753-0.744-0.484c-1.562,0.688-1.575,0.653-1.575-1.049c0-3.226-0.003-6.452,0.003-9.674
			c0.002-0.354-0.167-0.885,0.574-0.565c2.777,1.207,5.57,2.386,8.354,3.574C609.775-195.176,609.784-189.687,609.792-184.198z"/>
		<path fill-rule="evenodd" clip-rule="evenodd" fill="#E98D2A" d="M609.792-184.198c-0.008-5.488-0.017-10.978-0.025-16.463
			c0.408,0.165,0.213,0.52,0.219,0.785c0.012,4.878,0.007,9.752,0.004,14.631C609.989-184.889,610.044-184.512,609.792-184.198z"/>
		<path fill-rule="evenodd" clip-rule="evenodd" fill="#E98D2A" d="M591.519-184.198c0-2.747-0.006-5.493,0-8.239
			c0.003-0.248-0.119-0.555,0.201-0.726c0,2.577,0.004,5.155-0.004,7.73C591.714-185.016,591.802-184.575,591.519-184.198z"/>
		<path fill-rule="evenodd" clip-rule="evenodd" fill="#FFFFFF" d="M612.293-212.513c-0.747,0.015-1.145-0.379-1.153-1.097
			c-0.006-0.663,0.367-1.094,1.049-1.128c0.717-0.036,1.137,0.362,1.209,1.071C613.462-213.021,612.968-212.527,612.293-212.513z"/>
	</g>
	<g>
		<path fill-rule="evenodd" clip-rule="evenodd" fill="#203252" d="M600.62-140.241c-14.016,0-28.032,0.099-42.045-0.074
			c-3.193-0.039-4.479,0.744-4.091,4.057c0.267,2.278,0.104,4.615,0.031,6.923c-0.043,1.377-0.1,2.795-0.458,4.109
			c-1.79,6.573-7.921,9.228-18.418,8.071c-5.636-0.62-9.82-4.905-9.873-10.887c-0.15-16.785-0.171-33.574,0.006-50.358
			c0.076-7.261,3.438-13.024,9.691-16.836c1.84-1.121,2.896-2.461,3.605-4.48c2.701-7.686,5.734-15.255,8.381-22.959
			c4.879-14.204,14.797-21.655,29.711-21.733c17.081-0.089,34.189-0.826,51.246,0.431c12.21,0.9,20.547,7.654,25.039,18.875
			c3.256,8.138,6.023,16.475,8.863,24.771c0.782,2.283,1.817,3.972,4.001,5.282c5.804,3.483,9.241,8.846,9.349,15.567
			c0.272,17.241,0.273,34.49,0.051,51.731c-0.082,6.412-4.665,10.407-11.036,10.618c-2.154,0.071-4.314,0.073-6.468-0.001
			c-6.271-0.219-10.647-4.408-11.191-10.653c-0.041-0.459-0.019-0.924-0.031-1.385c-0.108-3.512,1.111-8.176-0.672-10.235
			c-2.133-2.461-6.942-0.753-10.578-0.79C624.03-140.315,612.325-140.241,600.62-140.241z M600.696-198.255
			c11.386,0,22.771-0.041,34.155,0.031c2.442,0.017,3.42-0.428,2.361-3.118c-1.968-4.998-3.697-10.091-5.475-15.163
			c-1.04-2.966-2.983-4.47-6.202-4.463c-16.463,0.036-32.925,0.039-49.387-0.003c-3.192-0.009-5.21,1.35-6.264,4.36
			c-1.676,4.787-3.318,9.592-5.219,14.291c-1.245,3.077-0.943,4.217,2.8,4.143C578.539-198.395,589.62-198.254,600.696-198.255z
			 M554.512-177.835c-4.804-0.003-8.626,4.004-8.521,8.934c0.101,4.726,3.813,8.331,8.562,8.318
			c4.766-0.014,8.435-3.615,8.507-8.353C563.136-173.895,559.354-177.831,554.512-177.835z M655.543-169.192
			c-0.056-4.944-4.012-8.826-8.806-8.641c-4.674,0.18-8.261,3.968-8.267,8.729c-0.005,4.913,3.882,8.668,8.819,8.521
			C652.03-160.726,655.598-164.446,655.543-169.192z"/>
		<path fill-rule="evenodd" clip-rule="evenodd" fill="#FEFEFE" d="M554.512-177.835c4.843,0.004,8.624,3.94,8.547,8.899
			c-0.072,4.737-3.741,8.339-8.507,8.353c-4.749,0.013-8.461-3.593-8.562-8.318C545.886-173.831,549.708-177.838,554.512-177.835z"
			/>
		<path fill-rule="evenodd" clip-rule="evenodd" fill="#FEFEFE" d="M655.543-169.192c0.055,4.746-3.513,8.467-8.253,8.609
			c-4.938,0.147-8.824-3.607-8.819-8.521c0.006-4.762,3.593-8.55,8.267-8.729C651.531-178.019,655.487-174.137,655.543-169.192z"/>
	</g>
</g>
<g>
	<path fill-rule="evenodd" clip-rule="evenodd" fill="#E98D2A" d="M28.368,21.067c-2.435,1.523-4.03,3.596-4.95,6.234
		c-0.629,1.8-0.453,3.429,0.842,4.83c1.288,1.393,2.897,1.784,4.721,1.185c0.052-0.017,0.115-0.002,0.308-0.002
		c-0.6,1.556-0.282,3.912-1.754,4.564c-2.321,1.03-2.499,1.684-2.719,2.658c-0.064,0.283-1.25,1.482-1.513,1.482
		c-4.325,0.004-8.651,0.01-12.976-0.002c-2.749-0.009-4.049-1.325-4.051-4.062c-0.001-2.147-0.023-4.297,0.014-6.444
		c0.01-0.605-0.186-0.781-0.755-0.728c-0.443,0.044-0.894,0.015-1.343,0.008c-1.102-0.016-1.89-0.521-2.243-1.448
		c-0.379-0.988-0.073-1.811,0.668-2.499c2.539-2.35,5.085-4.694,7.626-7.042c2.169-2.003,4.339-4.005,6.508-6.008
		c1.333-1.231,2.312-1.24,3.661-0.009C23.034,16.177,25.649,18.577,28.368,21.067z M10.747,27.187
		c-0.293,1.634-0.283,3.267-0.008,4.898c0.203,0.67,0.648,0.929,1.344,0.914c1.372-0.031,2.744-0.028,4.116-0.004
		c0.874,0.016,1.271-0.42,1.281-1.24c0.017-1.372,0.025-2.745-0.004-4.117c-0.018-0.965-0.41-1.311-1.401-1.316
		c-1.312-0.011-2.625,0.019-3.937-0.011C11.452,26.294,10.995,26.555,10.747,27.187z M32.486,37.955
		c-2.453,0-4.905,0.019-7.356-0.012c-0.558-0.007-0.783,0.13-0.715,0.708c0.046,0.398,0.019,0.809,0.006,1.212
		c-0.007,0.241-0.018,0.489-0.081,0.719c-0.313,1.15-1.385,1.614-3.221,1.412c-0.986-0.108-1.718-0.858-1.728-1.904
		c-0.026-2.937-0.03-5.873,0.001-8.808c0.013-1.271,0.602-2.278,1.695-2.946c0.322-0.196,0.506-0.43,0.63-0.782
		c0.473-1.344,1.004-2.669,1.467-4.016c0.853-2.484,2.587-3.787,5.196-3.802c2.988-0.016,5.979-0.145,8.963,0.076
		c2.136,0.157,3.594,1.337,4.38,3.301c0.569,1.423,1.054,2.881,1.55,4.333c0.137,0.399,0.318,0.694,0.699,0.924
		c1.018,0.609,1.618,1.548,1.636,2.724c0.048,3.016,0.048,6.032,0.009,9.047c-0.014,1.122-0.816,1.82-1.93,1.858
		c-0.377,0.012-0.756,0.012-1.131,0c-1.097-0.04-1.863-0.771-1.958-1.864c-0.008-0.081-0.005-0.162-0.005-0.242
		c-0.02-0.614,0.193-1.43-0.118-1.79c-0.373-0.43-1.215-0.132-1.851-0.138C36.579,37.943,34.532,37.955,32.486,37.955z
		 M32.499,27.809c1.99,0,3.981-0.006,5.974,0.005c0.427,0.002,0.598-0.074,0.411-0.544c-0.343-0.876-0.645-1.765-0.956-2.654
		c-0.183-0.517-0.522-0.78-1.086-0.78c-2.88,0.007-5.758,0.007-8.638,0c-0.559-0.001-0.912,0.235-1.095,0.762
		c-0.293,0.839-0.582,1.678-0.914,2.501c-0.218,0.537-0.163,0.737,0.491,0.724C28.623,27.784,30.561,27.809,32.499,27.809z
		 M24.42,31.381c-0.84,0-1.508,0.7-1.491,1.563c0.018,0.827,0.667,1.457,1.498,1.454c0.833-0.002,1.475-0.632,1.488-1.461
		C25.93,32.069,25.268,31.381,24.42,31.381z M42.092,32.892c-0.01-0.863-0.702-1.542-1.541-1.511
		c-0.817,0.03-1.445,0.694-1.445,1.527c-0.002,0.857,0.679,1.515,1.542,1.489C41.477,34.373,42.102,33.722,42.092,32.892z
		 M22.929,32.943c0.018,0.827,0.667,1.457,1.498,1.454c0.833-0.002,1.475-0.632,1.488-1.461c0.015-0.867-0.647-1.556-1.495-1.556
		C23.58,31.381,22.912,32.081,22.929,32.943z M40.551,31.381c-0.817,0.03-1.445,0.694-1.445,1.527
		c-0.002,0.857,0.679,1.515,1.542,1.489c0.829-0.024,1.454-0.676,1.444-1.506C42.082,32.028,41.39,31.35,40.551,31.381z"/>
	<g>
		<g>
			<path fill-rule="evenodd" clip-rule="evenodd" fill="#E98D2A" d="M31.598,30.267c-0.057,0.17-0.184,0.242-0.351,0.247
				c-0.116,0.007-0.233,0.003-0.352,0.003c-0.325,0-0.46-0.134-0.46-0.467c-0.003-0.431,0-0.862,0-1.294
				c0-0.456-0.005-0.916,0.002-1.373c0.001-0.099-0.029-0.148-0.119-0.191c-0.42-0.207-0.606-0.581-0.675-1.02
				c-0.033-0.204,0.113-0.398,0.308-0.444c0.191-0.043,0.391,0.077,0.461,0.279c0.185,0.515,0.185,0.515,0.732,0.515
				c0.516,0,1.032,0.004,1.546-0.002c0.113-0.002,0.145,0.029,0.144,0.14c-0.005,0.703-0.006,1.406,0,2.109
				c0.001,0.117-0.034,0.15-0.153,0.153c-0.368,0.01-0.712-0.085-1.048-0.223c-0.056,0.029-0.035,0.086-0.035,0.129
				C31.597,29.308,31.598,29.787,31.598,30.267z"/>
			<path fill-rule="evenodd" clip-rule="evenodd" fill="#E98D2A" d="M35.467,26.521c-0.134,0-0.269,0.004-0.399-0.002
				c-0.079-0.002-0.104,0.024-0.123,0.104c-0.025,0.113,0.023,0.287-0.09,0.329c-0.081,0.028-0.212-0.07-0.32-0.114
				c-0.323-0.137-0.644-0.275-0.969-0.405c-0.09-0.035-0.11-0.074-0.093-0.173c0.107-0.604,0.205-1.208,0.304-1.811
				c0.025-0.149,0.072-0.284,0.243-0.319c0.159-0.035,0.265,0.052,0.339,0.18c0.097,0.164,0.224,0.24,0.419,0.208
				c0.088-0.014,0.181,0,0.271-0.002c0.25-0.004,0.475,0.058,0.635,0.265c0.09,0.118,0.201,0.155,0.347,0.145
				c0.159-0.012,0.318-0.006,0.479-0.002c0.139,0.004,0.248,0.062,0.295,0.2c0.16,0.465-0.091,1.079-0.523,1.292
				c-0.208,0.102-0.428,0.114-0.654,0.105C35.573,26.52,35.52,26.521,35.467,26.521z M35.231,25.314
				c0.117-0.002,0.204-0.089,0.193-0.2c-0.013-0.125-0.086-0.194-0.212-0.188c-0.119,0.006-0.185,0.081-0.183,0.196
				C35.03,25.248,35.101,25.318,35.231,25.314z"/>
			<path fill-rule="evenodd" clip-rule="evenodd" fill="#E98D2A" d="M34.793,30.267c-0.059,0.176-0.191,0.244-0.365,0.25
				c-0.117,0.002-0.234,0-0.351,0c-0.305,0-0.445-0.141-0.446-0.451c0-0.415-0.003-0.83,0.002-1.243
				c0.001-0.118-0.022-0.133-0.13-0.085c-0.272,0.119-0.275,0.113-0.275-0.185c0-0.563,0-1.128,0-1.69
				c0-0.062-0.029-0.156,0.102-0.1c0.486,0.212,0.974,0.418,1.46,0.625C34.791,28.349,34.793,29.308,34.793,30.267z"/>
			<path fill-rule="evenodd" clip-rule="evenodd" fill="#E98D2A" d="M34.793,30.267c0-0.959-0.002-1.918-0.004-2.879
				c0.071,0.028,0.038,0.091,0.038,0.139c0.003,0.851,0.002,1.705,0.001,2.559C34.828,30.146,34.838,30.213,34.793,30.267z"/>
			<path fill-rule="evenodd" clip-rule="evenodd" fill="#E98D2A" d="M31.598,30.267c0-0.479-0.001-0.959,0-1.438
				c0-0.043-0.021-0.1,0.035-0.129c0,0.451,0.001,0.901-0.001,1.353C31.632,30.124,31.647,30.202,31.598,30.267z"/>
			<path fill-rule="evenodd" clip-rule="evenodd" fill="#FFFFFF" d="M35.231,25.314c-0.131,0.004-0.201-0.066-0.201-0.192
				c-0.002-0.115,0.063-0.19,0.183-0.196c0.126-0.006,0.199,0.064,0.212,0.188C35.436,25.226,35.349,25.313,35.231,25.314z"/>
		</g>
		<g>
			<path fill-rule="evenodd" clip-rule="evenodd" fill="#E98D2A" d="M33.188,37.955c-2.449,0-4.902,0.019-7.352-0.012
				c-0.561-0.007-0.784,0.13-0.717,0.708c0.047,0.398,0.019,0.809,0.006,1.212c-0.009,0.241-0.017,0.489-0.081,0.719
				c-0.312,1.15-1.385,1.614-3.22,1.412c-0.986-0.108-1.718-0.858-1.727-1.904c-0.027-2.937-0.03-5.873,0-8.808
				c0.013-1.271,0.602-2.278,1.696-2.946c0.321-0.196,0.506-0.43,0.63-0.782c0.472-1.344,1.003-2.669,1.465-4.016
				c0.854-2.484,2.589-3.787,5.198-3.802c2.986-0.016,5.979-0.145,8.963,0.076c2.135,0.157,3.594,1.337,4.378,3.301
				c0.569,1.423,1.054,2.881,1.551,4.333c0.137,0.399,0.318,0.694,0.7,0.924c1.015,0.609,1.616,1.548,1.635,2.724
				c0.048,3.016,0.049,6.032,0.009,9.047c-0.014,1.122-0.814,1.82-1.929,1.858c-0.377,0.012-0.756,0.012-1.133,0
				c-1.097-0.04-1.862-0.771-1.958-1.864c-0.006-0.081-0.003-0.162-0.005-0.242c-0.02-0.614,0.194-1.43-0.117-1.79
				c-0.372-0.43-1.213-0.132-1.851-0.138C37.285,37.943,35.237,37.955,33.188,37.955z M33.203,27.809
				c1.991,0,3.983-0.006,5.975,0.005c0.426,0.002,0.597-0.074,0.412-0.544c-0.344-0.876-0.646-1.765-0.957-2.654
				c-0.183-0.517-0.521-0.78-1.085-0.78c-2.879,0.007-5.759,0.007-8.639,0c-0.557-0.001-0.911,0.235-1.095,0.762
				c-0.294,0.839-0.58,1.678-0.914,2.501c-0.216,0.537-0.164,0.737,0.49,0.724C29.328,27.784,31.267,27.809,33.203,27.809z
				 M25.126,31.381c-0.841,0-1.51,0.7-1.491,1.563c0.018,0.827,0.666,1.457,1.497,1.454c0.833-0.002,1.476-0.632,1.487-1.461
				C26.634,32.069,25.973,31.381,25.126,31.381z M42.796,32.892c-0.01-0.863-0.701-1.542-1.54-1.511
				c-0.816,0.03-1.444,0.694-1.445,1.527c-0.002,0.857,0.679,1.515,1.542,1.489C42.182,34.373,42.806,33.722,42.796,32.892z"/>
			<path fill-rule="evenodd" clip-rule="evenodd" fill="#FFFFFF" d="M25.126,31.381c0.847,0,1.508,0.688,1.493,1.556
				c-0.012,0.829-0.654,1.459-1.487,1.461c-0.831,0.003-1.479-0.627-1.497-1.454C23.616,32.081,24.285,31.381,25.126,31.381z"/>
			<path fill-rule="evenodd" clip-rule="evenodd" fill="#FFFFFF" d="M42.796,32.892c0.01,0.83-0.614,1.481-1.443,1.506
				c-0.863,0.025-1.544-0.632-1.542-1.489c0.001-0.833,0.629-1.497,1.445-1.527C42.095,31.35,42.786,32.028,42.796,32.892z"/>
		</g>
	</g>
</g>
</svg>
